<svg width="256" height="256" viewBox="0 0 256 256" xmlns="http://www.w3.org/2000/svg">
  <!-- 背景圆形 -->
  <circle cx="128" cy="128" r="120" fill="#4A90E2" stroke="#2E5BBA" stroke-width="8"/>
  
  <!-- 日历主体 -->
  <rect x="60" y="80" width="136" height="120" rx="8" fill="white" stroke="#E0E0E0" stroke-width="2"/>
  
  <!-- 日历头部 -->
  <rect x="60" y="80" width="136" height="32" rx="8" fill="#F5F5F5"/>
  <rect x="60" y="80" width="136" height="8" rx="8" fill="#E0E0E0"/>
  
  <!-- 日历网格线 -->
  <line x1="96" y1="112" x2="96" y2="200" stroke="#E0E0E0" stroke-width="1"/>
  <line x1="132" y1="112" x2="132" y2="200" stroke="#E0E0E0" stroke-width="1"/>
  <line x1="168" y1="112" x2="168" y2="200" stroke="#E0E0E0" stroke-width="1"/>
  <line x1="204" y1="112" x2="204" y2="200" stroke="#E0E0E0" stroke-width="1"/>
  
  <line x1="60" y1="128" x2="196" y2="128" stroke="#E0E0E0" stroke-width="1"/>
  <line x1="60" y1="144" x2="196" y2="144" stroke="#E0E0E0" stroke-width="1"/>
  <line x1="60" y1="160" x2="196" y2="160" stroke="#E0E0E0" stroke-width="1"/>
  <line x1="60" y1="176" x2="196" y2="176" stroke="#E0E0E0" stroke-width="1"/>
  <line x1="60" y1="192" x2="196" y2="192" stroke="#E0E0E0" stroke-width="1"/>
  
  <!-- 高亮今日 -->
  <circle cx="128" cy="144" r="12" fill="#FF6B6B"/>
  <text x="128" y="150" text-anchor="middle" font-family="Arial, sans-serif" font-size="12" font-weight="bold" fill="white">15</text>
  
  <!-- 装饰元素 -->
  <circle cx="200" cy="60" r="8" fill="#FFD93D"/>
  <circle cx="56" cy="200" r="6" fill="#6BCF7F"/>
</svg>